<svg width="16" height="16" viewBox="0 0 16 16" fill="none" xmlns="http://www.w3.org/2000/svg">
<path fill-rule="evenodd" clip-rule="evenodd" d="M7.81888 12.8047C8.06037 12.5444 8.06037 12.1223 7.81888 11.8619L4.23674 8L7.81889 4.13807C8.06037 3.87772 8.06037 3.45561 7.81889 3.19526C7.5774 2.93491 7.18587 2.93491 6.94438 3.19526L3.36223 7.05719C2.87925 7.57789 2.87926 8.42211 3.36223 8.94281L6.94438 12.8047C7.18587 13.0651 7.5774 13.0651 7.81888 12.8047Z" fill="#5D6AC6"/>
<path fill-rule="evenodd" clip-rule="evenodd" d="M12.7827 12.8047C13.0724 12.5444 13.0724 12.1223 12.7827 11.8619L8.48409 8L12.7827 4.13807C13.0724 3.87772 13.0724 3.45561 12.7827 3.19526C12.4929 2.93491 12.023 2.93491 11.7333 3.19526L7.43468 7.05719C6.85511 7.57789 6.85511 8.42211 7.43468 8.94281L11.7333 12.8047C12.023 13.0651 12.4929 13.0651 12.7827 12.8047Z" fill="#E9F5FF"/>
</svg>
