<svg width="24" height="24" viewBox="0 0 24 24" fill="none" xmlns="http://www.w3.org/2000/svg">
<path fill-rule="evenodd" clip-rule="evenodd" d="M4 11.0019C4 10.3616 4.27177 9.75138 4.7477 9.32304L10.0179 4.57982C10.8769 3.80673 12.1809 3.80673 13.0399 4.57982L18.3101 9.32304C18.7861 9.75138 19.0578 10.3616 19.0578 11.0019V16.772C19.0578 18.0194 18.0466 19.0307 16.7992 19.0307H14.5405L14.5363 19.0307H8.52156L8.51735 19.0307H6.25868C5.01124 19.0307 4 18.0194 4 16.772V11.0019Z" fill="#E9F5FF"/>
<path d="M9.26953 15.0076C9.26953 13.9031 10.165 13.0076 11.2695 13.0076H11.7869C12.8915 13.0076 13.7869 13.9031 13.7869 15.0076V19.0308H9.26953V15.0076Z" fill="#5D6AC6"/>
</svg>
