<svg width="640" height="300" xmlns="http://www.w3.org/2000/svg" fill="none">
 <mask height="300" width="1280" y="0" x="0" maskUnits="userSpaceOnUse" id="mask0_28_98">
  <rect id="svg_1" fill="white" height="300" width="1280"/>
 </mask>
 <defs>
  <linearGradient y2="1.25538" x2="0.31812" y1="0.05303" x1="0.05636" id="paint0_linear_28_98">
   <stop stop-color="#68D6F7"/>
   <stop stop-color="#32B0E7" offset="0.95833"/>
  </linearGradient>
  <linearGradient y2="1.3277" x2="0.17805" y1="0.05303" x1="0.05635" id="paint1_linear_28_98">
   <stop stop-color="#68D6F7"/>
   <stop stop-color="#32B0E7" offset="0.95833"/>
  </linearGradient>
  <linearGradient y2="0.82932" x2="1.14336" y1="0.05303" x1="0.05638" id="paint2_linear_28_98">
   <stop stop-color="#68D6F7"/>
   <stop stop-color="#32B0E7" offset="0.95833"/>
  </linearGradient>
  <linearGradient y2="0" x2="0.49918" y1="0.99999" x1="0.49918" id="paint3_linear_28_98">
   <stop stop-color="#2081D4"/>
   <stop stop-color="#45CAF2" offset="0.47917"/>
   <stop stop-color="#8CEFFF" offset="1"/>
  </linearGradient>
  <linearGradient y2="1.15669" x2="0.50084" y1="0.03598" x1="0.50084" id="paint4_linear_28_98">
   <stop stop-color="#005BA1"/>
   <stop stop-color="#003067" offset="1"/>
  </linearGradient>
  <linearGradient y2="1.32802" x2="0.17742" y1="0.05303" x1="0.05638" id="paint5_linear_28_98">
   <stop stop-color="#9CEBFF" offset="0.40428"/>
   <stop stop-color="#32B0E7" offset="0.95833"/>
  </linearGradient>
  <linearGradient y2="1.26197" x2="0.30535" y1="0.05303" x1="0.05638" id="paint6_linear_28_98">
   <stop stop-color="#68D6F7"/>
   <stop stop-color="#32B0E7" offset="0.95833"/>
  </linearGradient>
  <linearGradient y2="1.29815" x2="0.23527" y1="0.05303" x1="0.05638" id="paint7_linear_28_98">
   <stop stop-color="#68D6F7"/>
   <stop stop-color="#32B0E7" offset="0.95833"/>
  </linearGradient>
  <linearGradient y2="0" x2="0.49918" y1="1" x1="0.49918" id="paint8_linear_28_98">
   <stop stop-color="#2081D4"/>
   <stop stop-color="#45CAF2" offset="0.47917"/>
   <stop stop-color="#8CEFFF" offset="1"/>
  </linearGradient>
 </defs>
 <g>
  <title>Layer 1</title>
  <rect x="-547" y="0" id="svg_2" fill="white" height="300" width="1280"/>
  <g id="svg_3" mask="url(#mask0_28_98)">
   <path id="svg_4" stroke="#C9F0FF" d="m105,277l33,-20l-43,-116l62,-54l-45,-29l33,-80l120,87l-3,-57l25,12l78,11l98,56l20,33l171,77m0,0l-114,-21l-2,88m116,-67l-116,67m0,0l116,-21l115,66"/>
   <path id="svg_5" stroke="#C9F0FF" d="m203,331l-8,-133l-57,59l-96,-104l10,-75l-49,124l102,75"/>
   <path id="svg_6" stroke="url(#paint0_linear_28_98)" d="m808,287l-154,-90l98,-10"/>
   <path id="svg_7" stroke="url(#paint1_linear_28_98)" d="m654,243l153.5,0l-38.5,66"/>
   <path id="svg_8" stroke="#C9F0FF" d="m540,176l-253,-156l-22,45l-8,53m-12,65l65,37l54,14l-16,53l76,44l29,-67l85,0"/>
   <path id="svg_9" stroke="#C9F0FF" d="m617,87l-252,-56l21.5,145l-129.5,-58l-57,-56m417,25l-134,33l-173,100l-76,44l-96,-7l-135,-55l39,-49l53,-12l-43,-63l60,-20l88,4m417,25l135,100m-135,-100l119,13m-536,-38l10,-37l11,-38l41,21l0,-35"/>
   <path id="svg_10" stroke="#C9F0FF" d="m540,176l-133,11l56,-100l-206,31l-100,-31m0,0l38,111l-100,-57l17,-83l150,-50l124,168l-22,58l89,30l141.5,101.5m-437.5,-278.5l88,96m349.5,182.5l79.5,-34.5m-79.5,34.5l-56.5,-101.5"/>
   <path id="svg_11" stroke="#C9F0FF" d="m157,87l-12,-109l-93,100l-33,-100l93,80"/>
   <path id="svg_12" stroke="#C9F0FF" d="m245,183l-11,81m114,23l-38,-67l55,-189"/>
   <path id="svg_13" stroke="#C9F0FF" d="m463,87l39,-66.5l115,66.5"/>
   <path id="svg_14" stroke="#C9F0FF" d="m483,120l19,-99l-148,-34.5l11,44.5"/>
   <path id="svg_15" fill="url(#paint2_linear_28_98)" d="m410.046,119.57c4.699,2.719 8.497,9.297 8.477,14.695l-0.26,94.525c0,5.398 -3.838,7.577 -8.537,4.858l-82.249,-47.482c-4.718,-2.719 -8.497,-9.297 -8.477,-14.695l0.26,-94.5247c0,-5.398 3.839,-7.5772 8.537,-4.8582l82.249,47.4819z"/>
   <path id="svg_16" fill="url(#paint3_linear_28_98)" d="m426.82,127.487c-0.02,-0.199 -0.06,-0.379 -0.1,-0.579c-0.08,-0.46 -0.2,-0.92 -0.32,-1.4c-0.06,-0.2 -0.1,-0.4 -0.16,-0.6c-0.179,-0.579 -0.379,-1.139 -0.619,-1.699c-0.02,-0.06 -0.06,-0.14 -0.08,-0.2l0,-0.04c-0.28,-0.6 -0.58,-1.179 -0.92,-1.759c-0.08,-0.14 -0.18,-0.3 -0.26,-0.44c-0.32,-0.52 -0.64,-1.04 -0.999,-1.539c-0.04,-0.06 -0.08,-0.14 -0.14,-0.2c-0.32,-0.44 -0.66,-0.86 -1,-1.26c-0.1,-0.1 -0.2,-0.2 -0.3,-0.3c-0.08,-0.08 -0.16,-0.18 -0.24,-0.26c-0.44,-0.46 -0.92,-0.899 -1.399,-1.299c-0.06,-0.06 -0.14,-0.1 -0.2,-0.16c-0.52,-0.4 -1.04,-0.78 -1.58,-1.1l-82.249,-47.4821c-2.379,-1.3595 -4.518,-1.4995 -6.058,-0.5998l-8.457,4.9182c1.54,-0.8997 3.699,-0.7797 6.058,0.5998l82.249,47.4819c0.54,0.32 1.06,0.68 1.58,1.1c0.08,0.06 0.14,0.1 0.22,0.16c0.48,0.4 0.939,0.84 1.399,1.299c0.08,0.08 0.16,0.18 0.24,0.26c0.46,0.5 0.88,1.02 1.3,1.56c0.04,0.06 0.08,0.14 0.14,0.2c0.36,0.5 0.679,0.999 0.999,1.539c0.08,0.14 0.18,0.3 0.26,0.44c0.34,0.6 0.64,1.2 0.92,1.799c0.04,0.06 0.06,0.14 0.08,0.2c0.24,0.56 0.44,1.14 0.62,1.7c0.06,0.2 0.12,0.399 0.16,0.579c0.139,0.46 0.239,0.94 0.319,1.4c0.04,0.2 0.08,0.38 0.1,0.58c0.1,0.639 0.16,1.259 0.16,1.879l-0.26,94.525c0,2.679 -0.959,4.578 -2.479,5.458l8.457,-4.918c1.52,-0.88 2.479,-2.779 2.479,-5.458l0.26,-94.525c0,-0.62 -0.06,-1.24 -0.16,-1.88l-0.02,0.02z"/>
   <path id="svg_17" fill="url(#paint4_linear_28_98)" d="m344.771,99.8378c0.36,0.2002 0.699,0.5802 0.959,1.0192c0.26,0.44 0.4,0.92 0.4,1.34c0,0.42 -0.14,0.74 -0.42,0.88c-0.26,0.14 -0.599,0.1 -0.959,-0.1l-7.198,-4.1588l0,8.9368c-0.02,0.2 -0.06,0.38 -0.12,0.54c-0.08,0.14 -0.18,0.26 -0.299,0.32c-0.12,0.08 -0.28,0.1 -0.44,0.1c-0.16,-0.02 -0.34,-0.08 -0.52,-0.18c-0.18,-0.1 -0.38,-0.26 -0.52,-0.42c-0.16,-0.16 -0.32,-0.38 -0.44,-0.6c-0.12,-0.22 -0.22,-0.46 -0.3,-0.7c-0.06,-0.22 -0.1,-0.46 -0.1,-0.66l0,-10.4956c0.009,-0.0408 0.016,-0.0808 0.023,-0.12c0.028,-0.1526 0.054,-0.2925 0.117,-0.4198c0.08,-0.14 0.18,-0.2399 0.3,-0.3199c0.12,-0.08 0.28,-0.1 0.44,-0.08c0.16,0 0.34,0.06 0.52,0.16l8.577,4.9581l-0.02,0zm55.879,71.4532c0.06,-20.252 -14.175,-44.903 -31.789,-55.079c-17.613,-10.177 -31.948,-2 -32.008,18.233c-0.06,20.252 14.175,44.903 31.789,55.079c17.613,10.177 31.948,2 32.008,-18.233zm-8.977,-5.018c-0.04,14.535 -10.336,20.392 -22.991,13.095c-12.656,-7.317 -22.872,-25.031 -22.832,-39.565c0.04,-14.535 10.336,-20.413 22.991,-13.095c12.636,7.317 22.872,25.03 22.832,39.565zm-45.863,10.376c-0.08,-0.24 -0.18,-0.48 -0.3,-0.699l0,0.02c-0.14,-0.22 -0.28,-0.42 -0.44,-0.58c-0.16,-0.16 -0.339,-0.32 -0.519,-0.42l-7.178,-4.159l0,-8.916c0,-0.44 -0.16,-0.92 -0.4,-1.36c-0.24,-0.44 -0.599,-0.799 -0.959,-1.019c-0.36,-0.22 -0.72,-0.24 -0.98,-0.1c-0.24,0.14 -0.38,0.46 -0.42,0.879l0,10.496c0,0.44 0.14,0.92 0.4,1.36c0.26,0.44 0.6,0.8 0.96,1l8.557,4.938c0.18,0.1 0.359,0.16 0.519,0.18c0.16,0.02 0.32,0 0.44,-0.08c0.14,-0.06 0.24,-0.18 0.3,-0.34c0.08,-0.16 0.12,-0.34 0.12,-0.54c0,-0.2 -0.04,-0.44 -0.1,-0.66zm22.992,-40.925c8.417,4.859 15.214,16.634 15.174,26.291c-0.04,9.656 -6.857,13.575 -15.274,8.716c-8.417,-4.858 -15.215,-16.633 -15.175,-26.31c0.04,-9.676 6.858,-13.555 15.275,-8.697zm-9.617,5.518c0,2.899 2.019,6.438 4.559,7.897c2.539,1.46 4.598,0.3 4.598,-2.599c0,-2.899 -2.039,-6.457 -4.558,-7.917c-2.52,-1.459 -4.579,-0.28 -4.579,2.619l-0.02,0zm9.577,14.475c1.119,0.64 2.039,0.14 2.039,-1.16c0,-1.299 -0.92,-2.839 -2.019,-3.498c-1.1,-0.66 -2.04,-0.14 -2.04,1.139c0,1.28 0.9,2.859 2.02,3.499l0,0.02zm33.947,54.34l0,-10.496l0.02,0.04c0,-0.42 -0.14,-0.9 -0.4,-1.34c-0.26,-0.46 -0.58,-0.799 -0.96,-1.019c-0.38,-0.22 -0.719,-0.26 -0.979,-0.1c-0.28,0.14 -0.42,0.44 -0.44,0.859l0,8.937l-7.178,-4.158c-0.359,-0.2 -0.719,-0.24 -0.979,-0.1c-0.26,0.14 -0.4,0.479 -0.4,0.879c0,0.4 0.14,0.88 0.4,1.32c0.26,0.44 0.6,0.819 0.959,1.019l8.557,4.939c0.38,0.2 0.72,0.24 0.98,0.1c0.24,-0.14 0.38,-0.46 0.42,-0.88zm0.18,-75.072c0,-0.42 -0.14,-0.9 -0.4,-1.34l-0.02,-0.02c-0.24,-0.44 -0.6,-0.8 -0.96,-1.019l-8.556,-4.939c-0.36,-0.22 -0.72,-0.26 -0.98,-0.1c-0.26,0.16 -0.4,0.48 -0.4,0.88c0,0.4 0.14,0.9 0.4,1.34c0.24,0.439 0.6,0.819 0.96,1.019l7.177,4.159l0,8.936c0,0.4 0.14,0.88 0.4,1.34c0.24,0.44 0.6,0.82 0.959,1.019c0.36,0.2 0.72,0.24 0.98,0.1c0.26,-0.14 0.4,-0.479 0.44,-0.879l0,-10.496z" clip-rule="evenodd" fill-rule="evenodd"/>
   <path id="svg_18" stroke="url(#paint5_linear_28_98)" d="m538,264l136,67l-20,-88l0,-46l-37,-110l-77,89l-87,88m85,0l-131,-77m131,77l-12,52.5m-119,-129.5l-43,47m43,-47l46,77m-89,-30l-71,-55m71,55l89,30m-89,-30l-16,53m-55,-108l-48,4m48,-4l-36,-61l-12,65m0,0l-50,15l39,66m0,0l-129,13l98,54l31,-67z"/>
   <path id="svg_19" stroke="url(#paint6_linear_28_98)" d="m234,264l114,23l-68,49l-46,-72z"/>
   <path id="svg_20" stroke="url(#paint7_linear_28_98)" d="m69,199l-66,3l102,75m-36,-78l36,78m-36,-78l26,-58m-26,58l126,-1l153,89m-243,-10l-6,46"/>
   <path id="svg_21" fill="url(#paint8_linear_28_98)" d="m289,20c0,1.1046 -0.895,2 -2,2c-1.105,0 -2,-0.8954 -2,-2c0,-1.1046 0.895,-2 2,-2c1.105,0 2,0.8954 2,2zm213,3c1.1,0 2,-0.8954 2,-2c0,-1.1046 -0.9,-2 -2,-2c-1.1,0 -2,0.8954 -2,2c0,1.1046 0.9,2 2,2zm-450,57c1.105,0 2,-0.8954 2,-2c0,-1.1046 -0.895,-2 -2,-2c-1.105,0 -2,0.8954 -2,2c0,1.1046 0.895,2 2,2zm43,64c1.657,0 3,-1.343 3,-3c0,-1.657 -1.343,-3 -3,-3c-1.657,0 -3,1.343 -3,3c0,1.657 1.343,3 3,3zm165,-26c0,1.657 -1.343,3 -3,3c-1.657,0 -3,-1.343 -3,-3c0,-1.657 1.343,-3 3,-3c1.657,0 3,1.343 3,3zm33,64c1.657,0 3,-1.343 3,-3c0,-1.657 -1.343,-3 -3,-3c-1.657,0 -3,1.343 -3,3c0,1.657 1.343,3 3,3zm-44,1c0,2.209 -1.791,4 -4,4c-2.209,0 -4,-1.791 -4,-4c0,-2.209 1.791,-4 4,-4c2.209,0 4,1.791 4,4zm99,109c2.761,0 5,-2.239 5,-5c0,-2.761 -2.239,-5 -5,-5c-2.761,0 -5,2.239 -5,5c0,2.761 2.239,5 5,5zm110,-28c0,2.761 -2.24,5 -5,5c-2.761,0 -5,-2.239 -5,-5c0,-2.761 2.239,-5 5,-5c2.76,0 5,2.239 5,5zm-353,18c2.761,0 5,-2.239 5,-5c0,-2.761 -2.239,-5 -5,-5c-2.761,0 -5,2.239 -5,5c0,2.761 2.239,5 5,5zm439,-106c0,2.209 -1.79,4 -4,4c-2.21,0 -4,-1.791 -4,-4c0,-2.209 1.79,-4 4,-4c2.21,0 4,1.791 4,4zm110,25c2.21,0 4,-1.791 4,-4c0,-2.209 -1.79,-4 -4,-4c-2.21,0 -4,1.791 -4,4c0,2.209 1.79,4 4,4zm5,42c0,2.761 -2.24,5 -5,5c-2.76,0 -5,-2.239 -5,-5c0,-2.761 2.24,-5 5,-5c2.76,0 5,2.239 5,5zm-121,25c2.21,0 4,-1.791 4,-4c0,-2.209 -1.79,-4 -4,-4c-2.21,0 -4,1.791 -4,4c0,2.209 1.79,4 4,4zm-52,-148c0,1.657 -1.34,3 -3,3c-1.66,0 -3,-1.343 -3,-3c0,-1.657 1.34,-3 3,-3c1.66,0 3,1.343 3,3zm-23,-31c1.1,0 2,-0.8954 2,-2c0,-1.1046 -0.9,-2 -2,-2c-1.1,0 -2,0.8954 -2,2c0,1.1046 0.9,2 2,2zm157,-2c0,1.6569 -1.34,3 -3,3c-1.66,0 -3,-1.3431 -3,-3c0,-1.6569 1.34,-3 3,-3c1.66,0 3,1.3431 3,3zm-252,147c0,2.209 -1.791,4 -4,4c-2.209,0 -4,-1.791 -4,-4c0,-2.209 1.791,-4 4,-4c2.209,0 4,1.791 4,4zm-256,-174c1.105,0 2,-0.8954 2,-2c0,-1.1046 -0.895,-2 -2,-2c-1.105,0 -2,0.8954 -2,2c0,1.1046 0.895,2 2,2zm86,138c0,1.657 -1.343,3 -3,3c-1.657,0 -3,-1.343 -3,-3c0,-1.657 1.343,-3 3,-3c1.657,0 3,1.343 3,3zm36,70c2.209,0 4,-1.791 4,-4c0,-2.209 -1.791,-4 -4,-4c-2.209,0 -4,1.791 -4,4c0,2.209 1.791,4 4,4zm-75,-181c0,1.1046 -0.895,2 -2,2c-1.105,0 -2,-0.8954 -2,-2c0,-1.1046 0.895,-2 2,-2c1.105,0 2,0.8954 2,2zm41,-23c1.105,0 2,-0.8954 2,-2c0,-1.1046 -0.895,-2 -2,-2c-1.105,0 -2,0.8954 -2,2c0,1.1046 0.895,2 2,2zm12,-39c0,1.1046 -0.895,2 -2,2c-1.105,0 -2,-0.8954 -2,-2c0,-1.1046 0.895,-2 2,-2c1.105,0 2,0.8954 2,2zm53,43c1.657,0 3,-1.3431 3,-3c0,-1.6569 -1.343,-3 -3,-3c-1.657,0 -3,1.3431 -3,3c0,1.6569 1.343,3 3,3zm100,-35c1.105,0 2,-0.8954 2,-2c0,-1.1046 -0.895,-2 -2,-2c-1.105,0 -2,0.8954 -2,2c0,1.1046 0.895,2 2,2zm-360,169c0,1.105 -0.895,2 -2,2c-1.105,0 -2,-0.895 -2,-2c0,-1.105 0.895,-2 2,-2c1.105,0 2,0.895 2,2zm64,1c2.209,0 4,-1.791 4,-4c0,-2.209 -1.791,-4 -4,-4c-2.209,0 -4,1.791 -4,4c0,2.209 1.791,4 4,4z" clip-rule="evenodd" fill-rule="evenodd"/>
   <path id="svg_22" fill="#C9F0FF" d="m264,8c0,1.10457 -0.895,2 -2,2c-1.105,0 -2,-0.89543 -2,-2c0,-1.10457 0.895,-2 2,-2c1.105,0 2,0.89543 2,2zm-220,145c0,1.105 -0.895,2 -2,2c-1.105,0 -2,-0.895 -2,-2c0,-1.105 0.895,-2 2,-2c1.105,0 2,0.895 2,2zm94,107c1.657,0 3,-1.343 3,-3c0,-1.657 -1.343,-3 -3,-3c-1.657,0 -3,1.343 -3,3c0,1.657 1.343,3 3,3zm175,-40c0,1.657 -1.343,3 -3,3c-1.657,0 -3,-1.343 -3,-3c0,-1.657 1.343,-3 3,-3c1.657,0 3,1.343 3,3zm94,-29c2.209,0 4,-1.791 4,-4c0,-2.209 -1.791,-4 -4,-4c-2.209,0 -4,1.791 -4,4c0,2.209 1.791,4 4,4z" clip-rule="evenodd" fill-rule="evenodd"/>
  </g>
 </g>
</svg>